<mxfile host="app.diagrams.net" agent="Mozilla/5.0 (Windows NT 10.0; Win64; x64) AppleWebKit/537.36 (KHTML, like Gecko) Chrome/131.0.0.0 Safari/537.36" version="26.0.10">
  <diagram name="Page-1" id="fbcf5db9-b524-4cd4-e4f3-379dc89c3999">
    <mxGraphModel dx="1851" dy="2438" grid="1" gridSize="10" guides="1" tooltips="1" connect="1" arrows="1" fold="1" page="1" pageScale="1" pageWidth="850" pageHeight="1100" background="none" math="0" shadow="0">
      <root>
        <mxCell id="0" />
        <mxCell id="1" parent="0" />
        <mxCell id="gdTOuHleY5k2Hak_XxqP-114" value="" style="rounded=0;whiteSpace=wrap;html=1;fillColor=#dae8fc;strokeColor=#6c8ebf;" vertex="1" parent="1">
          <mxGeometry x="160" y="10" width="1440" height="1830" as="geometry" />
        </mxCell>
        <mxCell id="2a0f93b5c73ef8e7-1" value="" style="line;strokeWidth=10;direction=south;html=1;fillColor=none;fontSize=13;fontColor=#000000;align=center;strokeColor=#AE4132;" parent="1" vertex="1">
          <mxGeometry x="370" y="100" width="10" height="1020" as="geometry" />
        </mxCell>
        <mxCell id="2a0f93b5c73ef8e7-2" value="" style="rounded=1;whiteSpace=wrap;html=1;strokeColor=none;strokeWidth=1;fillColor=#F2931E;fontSize=13;fontColor=#FFFFFF;align=center;gradientColor=none;gradientDirection=east;verticalAlign=top;shadow=1;" parent="1" vertex="1">
          <mxGeometry x="180" y="165" width="220" height="85" as="geometry" />
        </mxCell>
        <mxCell id="2a0f93b5c73ef8e7-3" value="&lt;font face=&quot;Verdana&quot; style=&quot;font-size: 24px; line-height: 60%; color: light-dark(rgb(65, 33, 255), rgb(18, 18, 18));&quot;&gt;Jan&lt;/font&gt;&lt;div style=&quot;line-height: 60%;&quot;&gt;&lt;span style=&quot;font-size: medium; background-color: transparent; line-height: 60%;&quot;&gt;&lt;font style=&quot;color: light-dark(rgb(65, 33, 255), rgb(18, 18, 18));&quot; face=&quot;Verdana&quot;&gt;24&lt;/font&gt;&lt;/span&gt;&lt;/div&gt;" style="text;html=1;strokeColor=none;fillColor=none;align=center;verticalAlign=middle;whiteSpace=wrap;fontSize=30;fontColor=#FFFFFF;" parent="1" vertex="1">
          <mxGeometry x="190" y="169" width="40" height="60" as="geometry" />
        </mxCell>
        <mxCell id="2a0f93b5c73ef8e7-4" value="" style="rounded=1;whiteSpace=wrap;html=1;strokeColor=none;strokeWidth=1;fillColor=#10739E;fontSize=13;fontColor=#FFFFFF;align=center;gradientColor=none;gradientDirection=east;verticalAlign=top;shadow=1;" parent="1" vertex="1">
          <mxGeometry x="350" y="273" width="220" height="100" as="geometry" />
        </mxCell>
        <mxCell id="2a0f93b5c73ef8e7-6" value="" style="rounded=1;whiteSpace=wrap;html=1;strokeColor=none;strokeWidth=1;fillColor=#F2931E;fontSize=13;fontColor=#FFFFFF;align=center;gradientColor=none;gradientDirection=east;verticalAlign=top;shadow=1;" parent="1" vertex="1">
          <mxGeometry x="180" y="390" width="220" height="100" as="geometry" />
        </mxCell>
        <mxCell id="2a0f93b5c73ef8e7-8" value="" style="rounded=1;whiteSpace=wrap;html=1;strokeColor=none;strokeWidth=1;fillColor=#10739E;fontSize=13;fontColor=#FFFFFF;align=center;gradientColor=none;gradientDirection=east;verticalAlign=top;shadow=1;" parent="1" vertex="1">
          <mxGeometry x="350" y="505" width="220" height="85" as="geometry" />
        </mxCell>
        <mxCell id="2a0f93b5c73ef8e7-10" value="" style="rounded=1;whiteSpace=wrap;html=1;strokeColor=none;strokeWidth=1;fillColor=#F2931E;fontSize=13;fontColor=#FFFFFF;align=center;gradientColor=none;gradientDirection=east;verticalAlign=top;shadow=1;" parent="1" vertex="1">
          <mxGeometry x="180" y="620" width="220" height="85" as="geometry" />
        </mxCell>
        <mxCell id="2a0f93b5c73ef8e7-12" value="" style="rounded=1;whiteSpace=wrap;html=1;strokeColor=none;strokeWidth=1;fillColor=#10739E;fontSize=13;fontColor=#FFFFFF;align=center;gradientColor=none;gradientDirection=east;verticalAlign=top;shadow=1;" parent="1" vertex="1">
          <mxGeometry x="350" y="735" width="220" height="85" as="geometry" />
        </mxCell>
        <mxCell id="2a0f93b5c73ef8e7-14" value="" style="rounded=1;whiteSpace=wrap;html=1;strokeColor=none;strokeWidth=1;fillColor=#F2931E;fontSize=13;fontColor=#FFFFFF;align=center;gradientColor=none;gradientDirection=east;verticalAlign=top;shadow=1;" parent="1" vertex="1">
          <mxGeometry x="180" y="860" width="220" height="85" as="geometry" />
        </mxCell>
        <mxCell id="2a0f93b5c73ef8e7-16" value="" style="rounded=1;whiteSpace=wrap;html=1;strokeColor=none;strokeWidth=1;fillColor=#10739E;fontSize=13;fontColor=#FFFFFF;align=center;gradientColor=none;gradientDirection=east;verticalAlign=top;shadow=1;" parent="1" vertex="1">
          <mxGeometry x="350" y="975" width="230" height="105" as="geometry" />
        </mxCell>
        <mxCell id="2a0f93b5c73ef8e7-18" value="&lt;h1 style=&quot;text-align: start;&quot;&gt;&lt;font style=&quot;font-size: 18px;&quot;&gt;Xodr&amp;nbsp;investigation&lt;/font&gt;&lt;/h1&gt;&lt;p&gt;Studying OpenDrive standard&lt;/p&gt;&lt;p&gt;Importer / exporter C++ library&lt;br&gt;&lt;/p&gt;&lt;p&gt;&lt;br&gt;&lt;/p&gt;" style="text;html=1;spacing=5;spacingTop=-20;whiteSpace=wrap;overflow=hidden;strokeColor=none;strokeWidth=4;fillColor=none;gradientColor=#007FFF;fontSize=9;fontColor=#FFFFFF;align=center;" parent="1" vertex="1">
          <mxGeometry x="230" y="169" width="170" height="77" as="geometry" />
        </mxCell>
        <mxCell id="2a0f93b5c73ef8e7-19" value="&lt;h1&gt;&lt;font style=&quot;font-size: 14px;&quot;&gt;Single straight road&lt;/font&gt;&lt;/h1&gt;&lt;p&gt;Generate xodr lane sections with smooth transition&lt;/p&gt;&lt;p&gt;&lt;font style=&quot;color: rgb(204, 204, 0);&quot;&gt;Unit test: 100+ random profiles.&lt;/font&gt;&lt;/p&gt;" style="text;html=1;spacing=5;spacingTop=-20;whiteSpace=wrap;overflow=hidden;strokeColor=none;strokeWidth=4;fillColor=none;gradientColor=#007FFF;fontSize=9;fontColor=#FFFFFF;align=center;" parent="1" vertex="1">
          <mxGeometry x="410" y="284" width="160" height="96" as="geometry" />
        </mxCell>
        <mxCell id="2a0f93b5c73ef8e7-20" value="&lt;h1&gt;&lt;font style=&quot;font-size: 14px;&quot;&gt;Generate Junction&lt;/font&gt;&lt;/h1&gt;&lt;p&gt;All incoming lanes have at least one successor connecting road; abort otherwise&lt;/p&gt;&lt;p&gt;&lt;font style=&quot;color: rgb(0, 0, 255);&quot;&gt;Unit test: 100+ random incoming lane configurations.&lt;/font&gt;&lt;/p&gt;" style="text;html=1;spacing=5;spacingTop=-20;whiteSpace=wrap;overflow=hidden;strokeColor=none;strokeWidth=4;fillColor=none;gradientColor=#007FFF;fontSize=9;fontColor=#FFFFFF;align=center;" parent="1" vertex="1">
          <mxGeometry x="215" y="394" width="190" height="96" as="geometry" />
        </mxCell>
        <mxCell id="2a0f93b5c73ef8e7-21" value="&lt;h1&gt;2D Visualization&lt;/h1&gt;&lt;p style=&quot;line-height: 70%;&quot;&gt;Road pieces as QGraphicsItem.&lt;/p&gt;&lt;h1 style=&quot;line-height: 70%;&quot;&gt;&lt;span style=&quot;background-color: transparent; color: light-dark(rgb(255, 255, 255), rgb(18, 18, 18)); font-size: 9px; font-weight: normal; line-height: 70%;&quot;&gt;Camera control in&amp;nbsp;&lt;/span&gt;&lt;span style=&quot;background-color: transparent; color: light-dark(rgb(255, 255, 255), rgb(18, 18, 18)); font-size: 9px; font-weight: normal; line-height: 70%;&quot;&gt;QGraphicsView.&lt;/span&gt;&lt;span style=&quot;background-color: transparent; color: light-dark(rgb(255, 255, 255), rgb(18, 18, 18)); font-size: 9px; font-weight: normal; line-height: 100%;&quot;&gt;.&lt;/span&gt;&lt;/h1&gt;&lt;h1&gt;&lt;br&gt;&lt;/h1&gt;" style="text;html=1;spacing=5;spacingTop=-20;whiteSpace=wrap;overflow=hidden;strokeColor=none;strokeWidth=4;fillColor=none;gradientColor=#007FFF;fontSize=9;fontColor=#FFFFFF;align=center;" parent="1" vertex="1">
          <mxGeometry x="400" y="510" width="160" height="76" as="geometry" />
        </mxCell>
        <mxCell id="2a0f93b5c73ef8e7-22" value="&lt;h1&gt;&lt;span style=&quot;font-size: 14px;&quot;&gt;Unary&amp;amp;binary Road Op&lt;/span&gt;&lt;/h1&gt;&lt;p style=&quot;line-height: 100%;&quot;&gt;reverse / split / join roads&lt;/p&gt;&lt;p style=&quot;line-height: 100%;&quot;&gt;including reference line and lane config&lt;/p&gt;&lt;p style=&quot;line-height: 100%;&quot;&gt;&lt;font style=&quot;color: rgb(0, 0, 255);&quot;&gt;Unit test: selected sequence of operations&lt;/font&gt;&lt;/p&gt;" style="text;html=1;spacing=5;spacingTop=-20;whiteSpace=wrap;overflow=hidden;strokeColor=none;strokeWidth=4;fillColor=none;gradientColor=#007FFF;fontSize=9;fontColor=#FFFFFF;align=center;" parent="1" vertex="1">
          <mxGeometry x="225" y="619" width="180" height="86" as="geometry" />
        </mxCell>
        <mxCell id="2a0f93b5c73ef8e7-23" value="&lt;h1&gt;2D Drawing&lt;/h1&gt;&lt;div&gt;Straight line &amp;amp; Bezier curve supported&lt;/div&gt;&lt;div&gt;Extend from / join to existing road&lt;/div&gt;&lt;div&gt;Overlapping roads form junction&lt;/div&gt;" style="text;html=1;spacing=5;spacingTop=-20;whiteSpace=wrap;overflow=hidden;strokeColor=none;strokeWidth=4;fillColor=none;gradientColor=#007FFF;fontSize=9;fontColor=#FFFFFF;align=center;" parent="1" vertex="1">
          <mxGeometry x="400" y="739" width="160" height="77" as="geometry" />
        </mxCell>
        <mxCell id="2a0f93b5c73ef8e7-24" value="&lt;h1&gt;&lt;span style=&quot;background-color: transparent; color: light-dark(rgb(255, 255, 255), rgb(18, 18, 18)); font-size: 14px;&quot;&gt;Save/Load/Undo/Redo&lt;/span&gt;&lt;/h1&gt;&lt;div&gt;&lt;font style=&quot;font-size: 9px;&quot;&gt;As maps grow bigger, these functions become essensial.&lt;/font&gt;&lt;/div&gt;&lt;div&gt;&lt;font style=&quot;font-size: 9px;&quot;&gt;Implementation is based on xodr serilization / de&lt;/font&gt;&lt;span style=&quot;background-color: transparent; color: light-dark(rgb(255, 255, 255), rgb(18, 18, 18));&quot;&gt;serilization.&lt;/span&gt;&lt;/div&gt;" style="text;html=1;spacing=5;spacingTop=-20;whiteSpace=wrap;overflow=hidden;strokeColor=none;strokeWidth=4;fillColor=none;gradientColor=#007FFF;fontSize=9;fontColor=#FFFFFF;align=center;" parent="1" vertex="1">
          <mxGeometry x="230" y="864" width="160" height="77" as="geometry" />
        </mxCell>
        <mxCell id="2a0f93b5c73ef8e7-25" value="&lt;h1&gt;&lt;font style=&quot;font-size: 14px;&quot;&gt;Full-time verification&lt;/font&gt;&lt;/h1&gt;&lt;p&gt;Discrepancy between displayed network and serialized copy is reported at earliest chance,&lt;/p&gt;&lt;p&gt;make sure no bug propagates&lt;/p&gt;" style="text;html=1;spacing=5;spacingTop=-20;whiteSpace=wrap;overflow=hidden;strokeColor=none;strokeWidth=4;fillColor=none;gradientColor=#007FFF;fontSize=9;fontColor=#FFFFFF;align=center;" parent="1" vertex="1">
          <mxGeometry x="400" y="980" width="160" height="90" as="geometry" />
        </mxCell>
        <mxCell id="gdTOuHleY5k2Hak_XxqP-1" value="&lt;font face=&quot;Verdana&quot; style=&quot;font-size: 24px; line-height: 60%; color: rgb(255, 128, 0);&quot;&gt;Jan&lt;/font&gt;&lt;div style=&quot;line-height: 60%;&quot;&gt;&lt;span style=&quot;font-size: medium; background-color: transparent; line-height: 60%;&quot;&gt;&lt;font style=&quot;color: rgb(255, 128, 0);&quot; face=&quot;Verdana&quot;&gt;24&lt;/font&gt;&lt;/span&gt;&lt;/div&gt;" style="text;html=1;strokeColor=none;fillColor=none;align=center;verticalAlign=middle;whiteSpace=wrap;fontSize=30;fontColor=#FFFFFF;" vertex="1" parent="1">
          <mxGeometry x="370" y="293" width="40" height="60" as="geometry" />
        </mxCell>
        <mxCell id="gdTOuHleY5k2Hak_XxqP-2" value="&lt;font face=&quot;Verdana&quot; style=&quot;font-size: 24px; line-height: 60%; color: light-dark(rgb(65, 33, 255), rgb(18, 18, 18));&quot;&gt;Feb&lt;/font&gt;&lt;div style=&quot;line-height: 60%;&quot;&gt;&lt;span style=&quot;font-size: medium; background-color: transparent; line-height: 60%;&quot;&gt;&lt;font style=&quot;color: light-dark(rgb(65, 33, 255), rgb(18, 18, 18));&quot; face=&quot;Verdana&quot;&gt;24&lt;/font&gt;&lt;/span&gt;&lt;/div&gt;" style="text;html=1;strokeColor=none;fillColor=none;align=center;verticalAlign=middle;whiteSpace=wrap;fontSize=30;fontColor=#FFFFFF;" vertex="1" parent="1">
          <mxGeometry x="190" y="394" width="40" height="60" as="geometry" />
        </mxCell>
        <mxCell id="gdTOuHleY5k2Hak_XxqP-4" value="&lt;font face=&quot;Verdana&quot; color=&quot;#ff8000&quot;&gt;&lt;span style=&quot;font-size: 24px;&quot;&gt;Feb&lt;/span&gt;&lt;/font&gt;&lt;div&gt;&lt;font face=&quot;Verdana&quot; color=&quot;#ff8000&quot;&gt;&lt;span style=&quot;font-size: 24px;&quot;&gt;24&lt;/span&gt;&lt;/font&gt;&lt;/div&gt;" style="text;html=1;strokeColor=none;fillColor=none;align=center;verticalAlign=middle;whiteSpace=wrap;fontSize=30;fontColor=#FFFFFF;" vertex="1" parent="1">
          <mxGeometry x="360" y="509" width="40" height="60" as="geometry" />
        </mxCell>
        <mxCell id="gdTOuHleY5k2Hak_XxqP-5" value="&lt;font face=&quot;Verdana&quot; color=&quot;#4121ff&quot;&gt;&lt;span style=&quot;font-size: 24px;&quot;&gt;Mar&lt;/span&gt;&lt;/font&gt;&lt;div&gt;&lt;font face=&quot;Verdana&quot; color=&quot;#4121ff&quot;&gt;&lt;span style=&quot;font-size: 24px;&quot;&gt;24&lt;/span&gt;&lt;/font&gt;&lt;/div&gt;" style="text;html=1;strokeColor=none;fillColor=none;align=center;verticalAlign=middle;whiteSpace=wrap;fontSize=30;fontColor=#FFFFFF;" vertex="1" parent="1">
          <mxGeometry x="190" y="624" width="40" height="60" as="geometry" />
        </mxCell>
        <mxCell id="gdTOuHleY5k2Hak_XxqP-6" value="&lt;font face=&quot;Verdana&quot; color=&quot;#ff8000&quot;&gt;&lt;span style=&quot;font-size: 24px;&quot;&gt;Mar&lt;/span&gt;&lt;/font&gt;&lt;div&gt;&lt;font face=&quot;Verdana&quot; color=&quot;#ff8000&quot;&gt;&lt;span style=&quot;font-size: 24px;&quot;&gt;24&lt;/span&gt;&lt;/font&gt;&lt;/div&gt;" style="text;html=1;strokeColor=none;fillColor=none;align=center;verticalAlign=middle;whiteSpace=wrap;fontSize=30;fontColor=#FFFFFF;" vertex="1" parent="1">
          <mxGeometry x="365" y="747.5" width="40" height="60" as="geometry" />
        </mxCell>
        <mxCell id="gdTOuHleY5k2Hak_XxqP-7" value="&lt;font face=&quot;Verdana&quot; color=&quot;#4121ff&quot;&gt;&lt;span style=&quot;font-size: 24px;&quot;&gt;Apr&lt;/span&gt;&lt;/font&gt;&lt;div&gt;&lt;font face=&quot;Verdana&quot; color=&quot;#4121ff&quot;&gt;&lt;span style=&quot;font-size: 24px;&quot;&gt;24&lt;/span&gt;&lt;/font&gt;&lt;/div&gt;" style="text;html=1;strokeColor=none;fillColor=none;align=center;verticalAlign=middle;whiteSpace=wrap;fontSize=30;fontColor=#FFFFFF;" vertex="1" parent="1">
          <mxGeometry x="190" y="872.5" width="40" height="60" as="geometry" />
        </mxCell>
        <mxCell id="gdTOuHleY5k2Hak_XxqP-8" value="&lt;font face=&quot;Verdana&quot; color=&quot;#ff8000&quot;&gt;&lt;span style=&quot;font-size: 24px;&quot;&gt;Apr&lt;/span&gt;&lt;/font&gt;&lt;div&gt;&lt;font face=&quot;Verdana&quot; color=&quot;#ff8000&quot;&gt;&lt;span style=&quot;font-size: 24px;&quot;&gt;24&lt;/span&gt;&lt;/font&gt;&lt;/div&gt;" style="text;html=1;strokeColor=none;fillColor=none;align=center;verticalAlign=middle;whiteSpace=wrap;fontSize=30;fontColor=#FFFFFF;" vertex="1" parent="1">
          <mxGeometry x="365" y="987.5" width="40" height="60" as="geometry" />
        </mxCell>
        <mxCell id="gdTOuHleY5k2Hak_XxqP-11" value="" style="line;strokeWidth=10;direction=west;html=1;fillColor=none;fontSize=13;fontColor=#000000;align=center;strokeColor=#AE4132;rotation=0;" vertex="1" parent="1">
          <mxGeometry x="370" y="1110" width="515" height="10" as="geometry" />
        </mxCell>
        <mxCell id="gdTOuHleY5k2Hak_XxqP-13" value="" style="line;strokeWidth=10;direction=south;html=1;fillColor=none;fontSize=13;fontColor=#000000;align=center;strokeColor=#AE4132;" vertex="1" parent="1">
          <mxGeometry x="880" y="100" width="10" height="1020" as="geometry" />
        </mxCell>
        <mxCell id="gdTOuHleY5k2Hak_XxqP-14" value="" style="rounded=1;whiteSpace=wrap;html=1;strokeColor=none;strokeWidth=1;fillColor=#F2931E;fontSize=13;fontColor=#FFFFFF;align=center;gradientColor=none;gradientDirection=east;verticalAlign=top;shadow=1;" vertex="1" parent="1">
          <mxGeometry x="640" y="864" width="280" height="85" as="geometry" />
        </mxCell>
        <mxCell id="gdTOuHleY5k2Hak_XxqP-15" value="" style="rounded=1;whiteSpace=wrap;html=1;strokeColor=none;strokeWidth=1;fillColor=#10739E;fontSize=13;fontColor=#FFFFFF;align=center;gradientColor=none;gradientDirection=east;verticalAlign=top;shadow=1;" vertex="1" parent="1">
          <mxGeometry x="740" y="975" width="330" height="105" as="geometry" />
        </mxCell>
        <mxCell id="gdTOuHleY5k2Hak_XxqP-17" value="&lt;h1&gt;&lt;span style=&quot;background-color: transparent; color: light-dark(rgb(255, 255, 255), rgb(18, 18, 18)); font-size: 14px;&quot;&gt;Lane configuration QWidget&amp;nbsp;&lt;/span&gt;&lt;/h1&gt;&lt;div&gt;&lt;span style=&quot;font-size: 11px;&quot;&gt;Drag bars rather instead of clicking buttons&lt;/span&gt;&lt;/div&gt;" style="text;html=1;spacing=5;spacingTop=-20;whiteSpace=wrap;overflow=hidden;strokeColor=none;strokeWidth=4;fillColor=none;gradientColor=#007FFF;fontSize=9;fontColor=#FFFFFF;align=center;" vertex="1" parent="1">
          <mxGeometry x="740" y="980" width="225" height="50" as="geometry" />
        </mxCell>
        <mxCell id="gdTOuHleY5k2Hak_XxqP-18" value="" style="shape=image;verticalLabelPosition=bottom;labelBackgroundColor=default;verticalAlign=top;aspect=fixed;imageAspect=0;image=https://raw.githubusercontent.com/guotata1996/guotata1996.github.io/master/assets/img/post5/profile_editing_widget.JPG;" vertex="1" parent="1">
          <mxGeometry x="749.25" y="1046.04" width="311.5" height="23.96" as="geometry" />
        </mxCell>
        <mxCell id="gdTOuHleY5k2Hak_XxqP-16" value="&lt;font face=&quot;Verdana&quot; color=&quot;#ff8000&quot;&gt;&lt;span style=&quot;font-size: 24px;&quot;&gt;May&lt;/span&gt;&lt;/font&gt;&lt;div&gt;&lt;font face=&quot;Verdana&quot; color=&quot;#ff8000&quot;&gt;&lt;span style=&quot;font-size: 24px;&quot;&gt;24&lt;/span&gt;&lt;/font&gt;&lt;/div&gt;" style="text;html=1;strokeColor=none;fillColor=none;align=center;verticalAlign=middle;whiteSpace=wrap;fontSize=30;fontColor=#FFFFFF;" vertex="1" parent="1">
          <mxGeometry x="1000" y="980" width="40" height="60" as="geometry" />
        </mxCell>
        <mxCell id="gdTOuHleY5k2Hak_XxqP-19" value="&lt;font face=&quot;Verdana&quot; color=&quot;#4121ff&quot;&gt;&lt;span style=&quot;font-size: 24px;&quot;&gt;May 24&lt;/span&gt;&lt;/font&gt;" style="text;html=1;strokeColor=none;fillColor=none;align=center;verticalAlign=middle;whiteSpace=wrap;fontSize=30;fontColor=#FFFFFF;" vertex="1" parent="1">
          <mxGeometry x="860" y="872.5" width="40" height="60" as="geometry" />
        </mxCell>
        <mxCell id="gdTOuHleY5k2Hak_XxqP-21" value="&lt;h1&gt;&lt;span style=&quot;background-color: transparent; color: light-dark(rgb(255, 255, 255), rgb(18, 18, 18));&quot;&gt;&lt;font style=&quot;font-size: 16px;&quot;&gt;Lane (ramp) creation mode&amp;nbsp;&lt;/font&gt;&lt;/span&gt;&lt;/h1&gt;&lt;div&gt;&lt;span style=&quot;font-size: 11px;&quot;&gt;corresponds to xodr&#39;s DirectJunction&lt;/span&gt;&lt;/div&gt;" style="text;html=1;spacing=5;spacingTop=-20;whiteSpace=wrap;overflow=hidden;strokeColor=none;strokeWidth=4;fillColor=none;gradientColor=#007FFF;fontSize=9;fontColor=#FFFFFF;align=center;" vertex="1" parent="1">
          <mxGeometry x="640" y="881.5" width="225" height="50" as="geometry" />
        </mxCell>
        <mxCell id="gdTOuHleY5k2Hak_XxqP-26" value="" style="rounded=1;whiteSpace=wrap;html=1;strokeColor=none;strokeWidth=1;fillColor=#10739E;fontSize=13;fontColor=#FFFFFF;align=center;gradientColor=none;gradientDirection=east;verticalAlign=top;shadow=1;" vertex="1" parent="1">
          <mxGeometry x="840.75" y="747.5" width="220" height="85" as="geometry" />
        </mxCell>
        <mxCell id="gdTOuHleY5k2Hak_XxqP-27" value="&lt;h1&gt;Basic traffic simulation&lt;/h1&gt;&lt;div&gt;For demo puerpose only!&lt;/div&gt;" style="text;html=1;spacing=5;spacingTop=-20;whiteSpace=wrap;overflow=hidden;strokeColor=none;strokeWidth=4;fillColor=none;gradientColor=#007FFF;fontSize=9;fontColor=#FFFFFF;align=center;" vertex="1" parent="1">
          <mxGeometry x="890.75" y="751.5" width="160" height="77" as="geometry" />
        </mxCell>
        <mxCell id="gdTOuHleY5k2Hak_XxqP-28" value="&lt;font face=&quot;Verdana&quot; color=&quot;#ff8000&quot;&gt;&lt;span style=&quot;font-size: 24px;&quot;&gt;Jun&lt;/span&gt;&lt;/font&gt;&lt;div&gt;&lt;font face=&quot;Verdana&quot; color=&quot;#ff8000&quot;&gt;&lt;span style=&quot;font-size: 24px;&quot;&gt;24&lt;/span&gt;&lt;/font&gt;&lt;/div&gt;" style="text;html=1;strokeColor=none;fillColor=none;align=center;verticalAlign=middle;whiteSpace=wrap;fontSize=30;fontColor=#FFFFFF;" vertex="1" parent="1">
          <mxGeometry x="855.75" y="760" width="40" height="60" as="geometry" />
        </mxCell>
        <mxCell id="gdTOuHleY5k2Hak_XxqP-35" value="" style="rounded=1;whiteSpace=wrap;html=1;strokeColor=none;strokeWidth=1;fillColor=#F2931E;fontSize=13;fontColor=#FFFFFF;align=center;gradientColor=none;gradientDirection=east;verticalAlign=top;shadow=1;" vertex="1" parent="1">
          <mxGeometry x="600" y="624" width="320" height="85" as="geometry" />
        </mxCell>
        <mxCell id="gdTOuHleY5k2Hak_XxqP-36" value="&lt;font face=&quot;Verdana&quot; color=&quot;#4121ff&quot;&gt;&lt;span style=&quot;font-size: 24px;&quot;&gt;Jun&lt;/span&gt;&lt;/font&gt;&lt;div&gt;&lt;font face=&quot;Verdana&quot; color=&quot;#4121ff&quot;&gt;&lt;span style=&quot;font-size: 24px;&quot;&gt;24&lt;/span&gt;&lt;/font&gt;&lt;/div&gt;" style="text;html=1;strokeColor=none;fillColor=none;align=center;verticalAlign=middle;whiteSpace=wrap;fontSize=30;fontColor=#FFFFFF;" vertex="1" parent="1">
          <mxGeometry x="870" y="636.5" width="40" height="60" as="geometry" />
        </mxCell>
        <mxCell id="gdTOuHleY5k2Hak_XxqP-37" value="&lt;h1&gt;&lt;span style=&quot;background-color: transparent; color: light-dark(rgb(255, 255, 255), rgb(18, 18, 18));&quot;&gt;&lt;font style=&quot;font-size: 16px;&quot;&gt;Full action recording and replay&lt;/font&gt;&lt;/span&gt;&lt;/h1&gt;&lt;div&gt;&lt;span style=&quot;font-size: 14px;&quot;&gt;Kb/Mouse evt -&amp;gt;&amp;nbsp;&lt;font style=&quot;color: rgb(0, 0, 255);&quot;&gt;Action -&lt;/font&gt;&amp;gt; Response&lt;/span&gt;&lt;/div&gt;&lt;div&gt;&lt;span style=&quot;font-size: 14px;&quot;&gt;All bugs and crashes made reproducable!&lt;/span&gt;&lt;/div&gt;&lt;div&gt;&lt;br&gt;&lt;/div&gt;" style="text;html=1;spacing=5;spacingTop=-20;whiteSpace=wrap;overflow=hidden;strokeColor=none;strokeWidth=4;fillColor=none;gradientColor=#007FFF;fontSize=9;fontColor=#FFFFFF;align=center;" vertex="1" parent="1">
          <mxGeometry x="600" y="630" width="270" height="87.5" as="geometry" />
        </mxCell>
        <mxCell id="gdTOuHleY5k2Hak_XxqP-38" value="&lt;font style=&quot;font-size: 18px; color: rgb(153, 255, 255);&quot;&gt;&lt;b style=&quot;&quot;&gt;Jan 1 2024&lt;/b&gt;&lt;/font&gt;&lt;div&gt;&lt;font style=&quot;font-size: 16px; color: rgb(255, 255, 255);&quot;&gt;Birth of RoadRunner&lt;/font&gt;&lt;/div&gt;" style="rhombus;whiteSpace=wrap;html=1;fillColor=#DD60FF;strokeColor=none;" vertex="1" parent="1">
          <mxGeometry x="255" y="20" width="240" height="90" as="geometry" />
        </mxCell>
        <mxCell id="gdTOuHleY5k2Hak_XxqP-40" value="&lt;font style=&quot;font-size: 18px; color: rgb(153, 255, 255);&quot;&gt;&lt;b style=&quot;&quot;&gt;July 28 2024&lt;/b&gt;&lt;/font&gt;&lt;div&gt;&lt;div&gt;&lt;font style=&quot;color: rgb(255, 255, 255); font-size: 15px;&quot;&gt;First stable release&lt;/font&gt;&lt;/div&gt;&lt;/div&gt;" style="shape=hexagon;perimeter=hexagonPerimeter2;whiteSpace=wrap;html=1;fixedSize=1;fillColor=#DD60FF;strokeColor=none;" vertex="1" parent="1">
          <mxGeometry x="792.5" y="382" width="185" height="84" as="geometry" />
        </mxCell>
        <mxCell id="gdTOuHleY5k2Hak_XxqP-41" value="" style="rounded=1;whiteSpace=wrap;html=1;strokeColor=none;strokeWidth=1;fillColor=#10739E;fontSize=13;fontColor=#FFFFFF;align=center;gradientColor=none;gradientDirection=east;verticalAlign=top;shadow=1;" vertex="1" parent="1">
          <mxGeometry x="840.75" y="505" width="220" height="85" as="geometry" />
        </mxCell>
        <mxCell id="gdTOuHleY5k2Hak_XxqP-42" value="&lt;h1&gt;&lt;span style=&quot;background-color: transparent; color: light-dark(rgb(255, 255, 255), rgb(18, 18, 18));&quot;&gt;Integration tests&lt;/span&gt;&lt;/h1&gt;&lt;h1 style=&quot;line-height: 100%;&quot;&gt;&lt;span style=&quot;font-weight: 400; font-size: x-small; background-color: transparent; color: light-dark(rgb(255, 255, 255), rgb(18, 18, 18)); line-height: 100%;&quot;&gt;Tons of bugs fixed.&lt;/span&gt;&lt;/h1&gt;&lt;div style=&quot;line-height: 100%;&quot;&gt;&lt;span style=&quot;font-size: x-small; line-height: 100%;&quot;&gt;Action replay really came into rescue&lt;/span&gt;&lt;font size=&quot;1&quot;&gt;&lt;span style=&quot;font-weight: 400;&quot;&gt;&lt;/span&gt;&lt;/font&gt;&lt;/div&gt;&lt;div&gt;&lt;br&gt;&lt;/div&gt;" style="text;html=1;spacing=5;spacingTop=-20;whiteSpace=wrap;overflow=hidden;strokeColor=none;strokeWidth=4;fillColor=none;gradientColor=#007FFF;fontSize=9;fontColor=#FFFFFF;align=center;" vertex="1" parent="1">
          <mxGeometry x="881.5" y="505" width="179.25" height="77" as="geometry" />
        </mxCell>
        <mxCell id="gdTOuHleY5k2Hak_XxqP-43" value="&lt;font face=&quot;Verdana&quot; color=&quot;#ff8000&quot;&gt;&lt;span style=&quot;font-size: 24px;&quot;&gt;Jul&lt;/span&gt;&lt;/font&gt;&lt;div&gt;&lt;span style=&quot;font-size: 24px; color: light-dark(rgb(255, 128, 0), rgb(206, 97, 0)); font-family: Verdana; background-color: transparent;&quot;&gt;24&lt;/span&gt;&lt;/div&gt;" style="text;html=1;strokeColor=none;fillColor=none;align=center;verticalAlign=middle;whiteSpace=wrap;fontSize=30;fontColor=#FFFFFF;" vertex="1" parent="1">
          <mxGeometry x="850.75" y="517.5" width="40" height="60" as="geometry" />
        </mxCell>
        <mxCell id="gdTOuHleY5k2Hak_XxqP-44" value="" style="rounded=1;whiteSpace=wrap;html=1;strokeColor=none;strokeWidth=1;fillColor=#F2931E;fontSize=13;fontColor=#FFFFFF;align=center;gradientColor=none;gradientDirection=east;verticalAlign=top;shadow=1;" vertex="1" parent="1">
          <mxGeometry x="630" y="260.5" width="310" height="85" as="geometry" />
        </mxCell>
        <mxCell id="gdTOuHleY5k2Hak_XxqP-45" value="&lt;div&gt;&lt;font face=&quot;Verdana&quot; color=&quot;#4121ff&quot;&gt;&lt;span style=&quot;font-size: 24px;&quot;&gt;Aug&lt;/span&gt;&lt;/font&gt;&lt;/div&gt;&lt;div&gt;&lt;font face=&quot;Verdana&quot; color=&quot;#4121ff&quot;&gt;&lt;span style=&quot;font-size: 24px;&quot;&gt;24&lt;/span&gt;&lt;/font&gt;&lt;/div&gt;" style="text;html=1;strokeColor=none;fillColor=none;align=center;verticalAlign=middle;whiteSpace=wrap;fontSize=30;fontColor=#FFFFFF;" vertex="1" parent="1">
          <mxGeometry x="890" y="273" width="40" height="60" as="geometry" />
        </mxCell>
        <mxCell id="gdTOuHleY5k2Hak_XxqP-46" value="&lt;h1&gt;&lt;span style=&quot;background-color: transparent; color: light-dark(rgb(255, 255, 255), rgb(18, 18, 18));&quot;&gt;&lt;font style=&quot;font-size: 14px;&quot;&gt;&amp;nbsp;Spiral &amp;amp; Arc instead of Bezier Curve&lt;/font&gt;&lt;/span&gt;&lt;/h1&gt;&lt;div&gt;&lt;span style=&quot;font-size: 14px; background-color: transparent; color: light-dark(rgb(255, 255, 255), rgb(18, 18, 18));&quot;&gt;Iterative algorithm for spiral fitting.&lt;/span&gt;&lt;/div&gt;&lt;div&gt;&lt;span style=&quot;font-size: 14px; background-color: transparent; color: light-dark(rgb(255, 255, 255), rgb(18, 18, 18));&quot;&gt;Smoother and more realistic.&lt;/span&gt;&lt;/div&gt;&lt;div&gt;&lt;br&gt;&lt;/div&gt;" style="text;html=1;spacing=5;spacingTop=-20;whiteSpace=wrap;overflow=hidden;strokeColor=none;strokeWidth=4;fillColor=none;gradientColor=#007FFF;fontSize=9;fontColor=#FFFFFF;align=center;" vertex="1" parent="1">
          <mxGeometry x="630" y="265.5" width="260" height="87.5" as="geometry" />
        </mxCell>
        <mxCell id="gdTOuHleY5k2Hak_XxqP-49" value="" style="rounded=1;whiteSpace=wrap;html=1;strokeColor=none;strokeWidth=1;fillColor=#10739E;fontSize=13;fontColor=#FFFFFF;align=center;gradientColor=none;gradientDirection=east;verticalAlign=top;shadow=1;" vertex="1" parent="1">
          <mxGeometry x="840.75" y="140" width="249.25" height="85" as="geometry" />
        </mxCell>
        <mxCell id="gdTOuHleY5k2Hak_XxqP-50" value="&lt;h1&gt;&lt;span style=&quot;background-color: transparent; color: light-dark(rgb(255, 255, 255), rgb(18, 18, 18));&quot;&gt;Elevation introduced&lt;/span&gt;&lt;/h1&gt;&lt;h1 style=&quot;line-height: 100%;&quot;&gt;&lt;br&gt;&lt;/h1&gt;" style="text;html=1;spacing=5;spacingTop=-20;whiteSpace=wrap;overflow=hidden;strokeColor=none;strokeWidth=4;fillColor=none;gradientColor=#007FFF;fontSize=9;fontColor=#FFFFFF;align=center;" vertex="1" parent="1">
          <mxGeometry x="890.75" y="140" width="199.25" height="25" as="geometry" />
        </mxCell>
        <mxCell id="gdTOuHleY5k2Hak_XxqP-51" value="&lt;font face=&quot;Verdana&quot; color=&quot;#ff8000&quot;&gt;&lt;span style=&quot;font-size: 24px;&quot;&gt;Aug&lt;/span&gt;&lt;/font&gt;&lt;div&gt;&lt;span style=&quot;font-size: 24px; color: light-dark(rgb(255, 128, 0), rgb(206, 97, 0)); font-family: Verdana; background-color: transparent;&quot;&gt;24&lt;/span&gt;&lt;/div&gt;" style="text;html=1;strokeColor=none;fillColor=none;align=center;verticalAlign=middle;whiteSpace=wrap;fontSize=30;fontColor=#FFFFFF;" vertex="1" parent="1">
          <mxGeometry x="850.75" y="152.5" width="40" height="60" as="geometry" />
        </mxCell>
        <mxCell id="gdTOuHleY5k2Hak_XxqP-52" value="&lt;h1 style=&quot;forced-color-adjust: none; line-height: 50%;&quot;&gt;&lt;font style=&quot;forced-color-adjust: none; color: rgb(255, 255, 255); line-height: 50%; font-size: 11px;&quot;&gt;&lt;span style=&quot;forced-color-adjust: none; font-weight: 400;&quot;&gt;Bridge, tunnel and flat mode.&lt;/span&gt;&lt;/font&gt;&lt;/h1&gt;&lt;h1 style=&quot;forced-color-adjust: none; line-height: 50%;&quot;&gt;&lt;font style=&quot;forced-color-adjust: none; color: rgb(255, 255, 255); line-height: 50%; font-size: 11px;&quot;&gt;&lt;span style=&quot;forced-color-adjust: none; font-weight: 400;&quot;&gt;3D scene rendered in 2D, causing artifacts!&lt;/span&gt;&lt;/font&gt;&lt;/h1&gt;&lt;div style=&quot;forced-color-adjust: none;&quot;&gt;&lt;font style=&quot;color: rgb(255, 255, 255); font-size: 11px;&quot;&gt;&lt;br&gt;&lt;/font&gt;&lt;br&gt;&lt;/div&gt;" style="text;whiteSpace=wrap;html=1;" vertex="1" parent="1">
          <mxGeometry x="915.57" y="140" width="149.62" height="81" as="geometry" />
        </mxCell>
        <mxCell id="gdTOuHleY5k2Hak_XxqP-53" value="" style="line;strokeWidth=10;direction=west;html=1;fillColor=none;fontSize=13;fontColor=#000000;align=center;strokeColor=#AE4132;rotation=0;" vertex="1" parent="1">
          <mxGeometry x="880" y="90" width="515" height="10" as="geometry" />
        </mxCell>
        <mxCell id="gdTOuHleY5k2Hak_XxqP-54" value="" style="line;strokeWidth=10;direction=south;html=1;fillColor=none;fontSize=13;fontColor=#000000;align=center;strokeColor=#AE4132;" vertex="1" parent="1">
          <mxGeometry x="1385" y="100" width="10" height="1100" as="geometry" />
        </mxCell>
        <mxCell id="gdTOuHleY5k2Hak_XxqP-55" value="" style="rounded=1;whiteSpace=wrap;html=1;strokeColor=none;strokeWidth=1;fillColor=#F2931E;fontSize=13;fontColor=#FFFFFF;align=center;gradientColor=none;gradientDirection=east;verticalAlign=top;shadow=1;" vertex="1" parent="1">
          <mxGeometry x="1160" y="280.5" width="310" height="85" as="geometry" />
        </mxCell>
        <mxCell id="gdTOuHleY5k2Hak_XxqP-56" value="&lt;div&gt;&lt;font face=&quot;Verdana&quot; color=&quot;#4121ff&quot;&gt;&lt;span style=&quot;font-size: 24px;&quot;&gt;Sep&lt;/span&gt;&lt;/font&gt;&lt;/div&gt;&lt;div&gt;&lt;font face=&quot;Verdana&quot; color=&quot;#4121ff&quot;&gt;&lt;span style=&quot;font-size: 24px;&quot;&gt;24&lt;/span&gt;&lt;/font&gt;&lt;/div&gt;" style="text;html=1;strokeColor=none;fillColor=none;align=center;verticalAlign=middle;whiteSpace=wrap;fontSize=30;fontColor=#FFFFFF;" vertex="1" parent="1">
          <mxGeometry x="1420" y="293" width="40" height="60" as="geometry" />
        </mxCell>
        <mxCell id="gdTOuHleY5k2Hak_XxqP-57" value="&lt;h1&gt;&lt;span style=&quot;background-color: transparent; color: light-dark(rgb(255, 255, 255), rgb(18, 18, 18));&quot;&gt;&lt;font style=&quot;font-size: 16px;&quot;&gt;&amp;nbsp;Road Details&lt;/font&gt;&lt;/span&gt;&lt;/h1&gt;&lt;div&gt;&lt;span style=&quot;background-color: transparent; color: light-dark(rgb(255, 255, 255), rgb(18, 18, 18)); font-size: 14px;&quot;&gt;Stop lines&lt;/span&gt;&lt;/div&gt;&lt;div&gt;&lt;span style=&quot;font-size: 14px;&quot;&gt;Turning arrows&lt;/span&gt;&lt;/div&gt;&lt;div&gt;&lt;span style=&quot;font-size: 14px;&quot;&gt;LOD for all road markings&lt;/span&gt;&lt;/div&gt;" style="text;html=1;spacing=5;spacingTop=-20;whiteSpace=wrap;overflow=hidden;strokeColor=none;strokeWidth=4;fillColor=none;gradientColor=#007FFF;fontSize=9;fontColor=#FFFFFF;align=center;" vertex="1" parent="1">
          <mxGeometry x="1160" y="279.25" width="260" height="87.5" as="geometry" />
        </mxCell>
        <mxCell id="gdTOuHleY5k2Hak_XxqP-61" value="" style="rounded=1;whiteSpace=wrap;html=1;strokeColor=none;strokeWidth=1;fillColor=#10739E;fontSize=13;fontColor=#FFFFFF;align=center;gradientColor=none;gradientDirection=east;verticalAlign=top;shadow=1;" vertex="1" parent="1">
          <mxGeometry x="1320" y="140" width="249.25" height="85" as="geometry" />
        </mxCell>
        <mxCell id="gdTOuHleY5k2Hak_XxqP-62" value="&lt;h1&gt;Junction Details&lt;/h1&gt;" style="text;html=1;spacing=5;spacingTop=-20;whiteSpace=wrap;overflow=hidden;strokeColor=none;strokeWidth=4;fillColor=none;gradientColor=#007FFF;fontSize=9;fontColor=#FFFFFF;align=center;" vertex="1" parent="1">
          <mxGeometry x="1370" y="140" width="199.25" height="25" as="geometry" />
        </mxCell>
        <mxCell id="gdTOuHleY5k2Hak_XxqP-63" value="&lt;font face=&quot;Verdana&quot; color=&quot;#ff8000&quot;&gt;&lt;span style=&quot;font-size: 24px;&quot;&gt;Sep&lt;/span&gt;&lt;/font&gt;&lt;div&gt;&lt;font face=&quot;Verdana&quot; color=&quot;#ff8000&quot;&gt;&lt;span style=&quot;font-size: 24px;&quot;&gt;24&lt;/span&gt;&lt;/font&gt;&lt;/div&gt;" style="text;html=1;strokeColor=none;fillColor=none;align=center;verticalAlign=middle;whiteSpace=wrap;fontSize=30;fontColor=#FFFFFF;" vertex="1" parent="1">
          <mxGeometry x="1330" y="152.5" width="40" height="60" as="geometry" />
        </mxCell>
        <mxCell id="gdTOuHleY5k2Hak_XxqP-64" value="&lt;h1 style=&quot;forced-color-adjust: none; line-height: 50%;&quot;&gt;&lt;font color=&quot;#ffffff&quot;&gt;&lt;span style=&quot;font-size: 11px; font-weight: 400;&quot;&gt;Strip dividers and boundary lines&lt;/span&gt;&lt;/font&gt;&lt;/h1&gt;&lt;div&gt;&lt;font color=&quot;#ffffff&quot;&gt;&lt;span style=&quot;font-size: 11px;&quot;&gt;Expensive to calculate! Have to store in xodr to save loading time.&lt;/span&gt;&lt;/font&gt;&lt;/div&gt;&lt;div style=&quot;forced-color-adjust: none;&quot;&gt;&lt;font style=&quot;color: rgb(255, 255, 255); font-size: 11px;&quot;&gt;&lt;br&gt;&lt;/font&gt;&lt;br&gt;&lt;/div&gt;" style="text;whiteSpace=wrap;html=1;" vertex="1" parent="1">
          <mxGeometry x="1394.82" y="140" width="175.18" height="81" as="geometry" />
        </mxCell>
        <mxCell id="gdTOuHleY5k2Hak_XxqP-65" value="" style="rounded=1;whiteSpace=wrap;html=1;strokeColor=none;strokeWidth=1;fillColor=#10739E;fontSize=13;fontColor=#FFFFFF;align=center;gradientColor=none;gradientDirection=east;verticalAlign=top;shadow=1;" vertex="1" parent="1">
          <mxGeometry x="1320" y="405" width="260" height="85" as="geometry" />
        </mxCell>
        <mxCell id="gdTOuHleY5k2Hak_XxqP-66" value="&lt;h1&gt;Misc UX improvements&lt;/h1&gt;" style="text;html=1;spacing=5;spacingTop=-20;whiteSpace=wrap;overflow=hidden;strokeColor=none;strokeWidth=4;fillColor=none;gradientColor=#007FFF;fontSize=9;fontColor=#FFFFFF;align=center;" vertex="1" parent="1">
          <mxGeometry x="1370" y="405" width="210" height="25" as="geometry" />
        </mxCell>
        <mxCell id="gdTOuHleY5k2Hak_XxqP-67" value="&lt;font face=&quot;Verdana&quot; color=&quot;#ff8000&quot;&gt;&lt;span style=&quot;font-size: 24px;&quot;&gt;Oct&lt;/span&gt;&lt;/font&gt;&lt;div&gt;&lt;font face=&quot;Verdana&quot; color=&quot;#ff8000&quot;&gt;&lt;span style=&quot;font-size: 24px;&quot;&gt;24&lt;/span&gt;&lt;/font&gt;&lt;/div&gt;" style="text;html=1;strokeColor=none;fillColor=none;align=center;verticalAlign=middle;whiteSpace=wrap;fontSize=30;fontColor=#FFFFFF;" vertex="1" parent="1">
          <mxGeometry x="1330" y="417.5" width="40" height="60" as="geometry" />
        </mxCell>
        <mxCell id="gdTOuHleY5k2Hak_XxqP-68" value="&lt;h1 style=&quot;forced-color-adjust: none; line-height: 20%;&quot;&gt;&lt;span style=&quot;font-size: 11px; color: light-dark(rgb(255, 255, 255), rgb(18, 18, 18)); background-color: transparent; font-weight: normal; line-height: 20%;&quot;&gt;And bug fixes...&amp;nbsp;&lt;/span&gt;&lt;/h1&gt;&lt;h1 style=&quot;forced-color-adjust: none; line-height: 20%;&quot;&gt;&lt;font color=&quot;#ffffff&quot;&gt;&lt;span style=&quot;font-size: 11px; font-weight: 400; line-height: 20%;&quot;&gt;2D editing experience ironed out&lt;/span&gt;&lt;/font&gt;&lt;/h1&gt;&lt;div style=&quot;forced-color-adjust: none;&quot;&gt;&lt;br&gt;&lt;/div&gt;" style="text;whiteSpace=wrap;html=1;" vertex="1" parent="1">
          <mxGeometry x="1387.41" y="415" width="190" height="75" as="geometry" />
        </mxCell>
        <mxCell id="gdTOuHleY5k2Hak_XxqP-70" value="" style="rounded=1;whiteSpace=wrap;html=1;strokeColor=none;strokeWidth=1;fillColor=#F2931E;fontSize=13;fontColor=#FFFFFF;align=center;gradientColor=none;gradientDirection=east;verticalAlign=top;shadow=1;" vertex="1" parent="1">
          <mxGeometry x="1170" y="537.75" width="310" height="85" as="geometry" />
        </mxCell>
        <mxCell id="gdTOuHleY5k2Hak_XxqP-71" value="&lt;div&gt;&lt;font face=&quot;Verdana&quot; color=&quot;#4121ff&quot;&gt;&lt;span style=&quot;font-size: 24px;&quot;&gt;Oct&lt;/span&gt;&lt;/font&gt;&lt;/div&gt;&lt;div&gt;&lt;font face=&quot;Verdana&quot; color=&quot;#4121ff&quot;&gt;&lt;span style=&quot;font-size: 24px;&quot;&gt;24&lt;/span&gt;&lt;/font&gt;&lt;/div&gt;" style="text;html=1;strokeColor=none;fillColor=none;align=center;verticalAlign=middle;whiteSpace=wrap;fontSize=30;fontColor=#FFFFFF;" vertex="1" parent="1">
          <mxGeometry x="1430" y="550.25" width="40" height="60" as="geometry" />
        </mxCell>
        <mxCell id="gdTOuHleY5k2Hak_XxqP-72" value="&lt;h1&gt;&lt;span style=&quot;background-color: transparent; color: light-dark(rgb(255, 255, 255), rgb(18, 18, 18)); font-size: 16px;&quot;&gt;Traffic simulation Enhanced&lt;/span&gt;&lt;/h1&gt;&lt;h1 style=&quot;line-height: 20%;&quot;&gt;&lt;span style=&quot;font-size: 14px; font-weight: 400; line-height: 20%;&quot;&gt;Gibbs car-following model&lt;/span&gt;&lt;/h1&gt;&lt;h1 style=&quot;line-height: 20%;&quot;&gt;&lt;span style=&quot;background-color: transparent; color: light-dark(rgb(255, 255, 255), rgb(18, 18, 18)); font-size: 14px; font-weight: 400; line-height: 20%;&quot;&gt;Route finding and planning&lt;/span&gt;&lt;/h1&gt;&lt;div style=&quot;line-height: 20%;&quot;&gt;&lt;span style=&quot;font-size: 14px; font-weight: 400; line-height: 20%;&quot;&gt;lane switching&lt;/span&gt;&lt;/div&gt;&lt;div&gt;&lt;span style=&quot;font-size: 14px; font-weight: 400;&quot;&gt;&lt;br&gt;&lt;/span&gt;&lt;/div&gt;&lt;div&gt;&lt;span style=&quot;font-size: 14px; font-weight: 400;&quot;&gt;&lt;br&gt;&lt;/span&gt;&lt;/div&gt;&lt;div&gt;&lt;span style=&quot;font-size: 14px; font-weight: 400;&quot;&gt;&lt;br&gt;&lt;/span&gt;&lt;/div&gt;" style="text;html=1;spacing=5;spacingTop=-20;whiteSpace=wrap;overflow=hidden;strokeColor=none;strokeWidth=4;fillColor=none;gradientColor=#007FFF;fontSize=9;fontColor=#FFFFFF;align=center;" vertex="1" parent="1">
          <mxGeometry x="1170" y="533.5" width="270" height="93.5" as="geometry" />
        </mxCell>
        <mxCell id="gdTOuHleY5k2Hak_XxqP-73" value="" style="rounded=1;whiteSpace=wrap;html=1;strokeColor=none;strokeWidth=1;fillColor=#10739E;fontSize=13;fontColor=#FFFFFF;align=center;gradientColor=none;gradientDirection=east;verticalAlign=top;shadow=1;" vertex="1" parent="1">
          <mxGeometry x="1320" y="662.5" width="260" height="85" as="geometry" />
        </mxCell>
        <mxCell id="gdTOuHleY5k2Hak_XxqP-74" value="&lt;h1&gt;Safety at junctions&lt;/h1&gt;" style="text;html=1;spacing=5;spacingTop=-20;whiteSpace=wrap;overflow=hidden;strokeColor=none;strokeWidth=4;fillColor=none;gradientColor=#007FFF;fontSize=9;fontColor=#FFFFFF;align=center;" vertex="1" parent="1">
          <mxGeometry x="1370" y="662.5" width="210" height="25" as="geometry" />
        </mxCell>
        <mxCell id="gdTOuHleY5k2Hak_XxqP-75" value="&lt;font face=&quot;Verdana&quot; color=&quot;#ff8000&quot;&gt;&lt;span style=&quot;font-size: 24px;&quot;&gt;Nov&lt;/span&gt;&lt;/font&gt;&lt;div&gt;&lt;font face=&quot;Verdana&quot; color=&quot;#ff8000&quot;&gt;&lt;span style=&quot;font-size: 24px;&quot;&gt;24&lt;/span&gt;&lt;/font&gt;&lt;/div&gt;" style="text;html=1;strokeColor=none;fillColor=none;align=center;verticalAlign=middle;whiteSpace=wrap;fontSize=30;fontColor=#FFFFFF;" vertex="1" parent="1">
          <mxGeometry x="1330" y="675" width="40" height="60" as="geometry" />
        </mxCell>
        <mxCell id="gdTOuHleY5k2Hak_XxqP-76" value="&lt;h1 style=&quot;forced-color-adjust: none; line-height: 50%;&quot;&gt;&lt;span style=&quot;font-size: 11px; font-weight: 400; color: light-dark(rgb(255, 255, 255), rgb(18, 18, 18)); background-color: transparent;&quot;&gt;Automatic signal phase assignment&lt;/span&gt;&lt;/h1&gt;&lt;h1 style=&quot;forced-color-adjust: none; line-height: 50%;&quot;&gt;&lt;font color=&quot;#ffffff&quot;&gt;&lt;span style=&quot;font-size: 11px; font-weight: 400;&quot;&gt;Zipline merge at hightway entrance&lt;/span&gt;&lt;/font&gt;&lt;/h1&gt;" style="text;whiteSpace=wrap;html=1;" vertex="1" parent="1">
          <mxGeometry x="1387.4099999999999" y="664" width="190" height="75" as="geometry" />
        </mxCell>
        <mxCell id="gdTOuHleY5k2Hak_XxqP-77" value="&lt;font style=&quot;font-size: 18px; color: rgb(153, 255, 255);&quot;&gt;&lt;b style=&quot;&quot;&gt;Nov 15 2024&lt;/b&gt;&lt;/font&gt;&lt;div&gt;&lt;font color=&quot;#ffffff&quot;&gt;&lt;span style=&quot;font-size: 15px;&quot;&gt;Final 2D Release&lt;/span&gt;&lt;/font&gt;&lt;/div&gt;" style="shape=hexagon;perimeter=hexagonPerimeter2;whiteSpace=wrap;html=1;fixedSize=1;fillColor=#DD60FF;strokeColor=none;" vertex="1" parent="1">
          <mxGeometry x="1297.5" y="807.5" width="185" height="84" as="geometry" />
        </mxCell>
        <mxCell id="gdTOuHleY5k2Hak_XxqP-78" value="" style="rounded=1;whiteSpace=wrap;html=1;strokeColor=none;strokeWidth=1;fillColor=#F2931E;fontSize=13;fontColor=#FFFFFF;align=center;gradientColor=none;gradientDirection=east;verticalAlign=top;shadow=1;" vertex="1" parent="1">
          <mxGeometry x="1170" y="941" width="310" height="85" as="geometry" />
        </mxCell>
        <mxCell id="gdTOuHleY5k2Hak_XxqP-79" value="&lt;div&gt;&lt;font face=&quot;Verdana&quot; color=&quot;#4121ff&quot;&gt;&lt;span style=&quot;font-size: 24px;&quot;&gt;Nov&lt;/span&gt;&lt;/font&gt;&lt;/div&gt;&lt;div&gt;&lt;font face=&quot;Verdana&quot; color=&quot;#4121ff&quot;&gt;&lt;span style=&quot;font-size: 24px;&quot;&gt;24&lt;/span&gt;&lt;/font&gt;&lt;/div&gt;" style="text;html=1;strokeColor=none;fillColor=none;align=center;verticalAlign=middle;whiteSpace=wrap;fontSize=30;fontColor=#FFFFFF;" vertex="1" parent="1">
          <mxGeometry x="1430" y="953.5" width="40" height="60" as="geometry" />
        </mxCell>
        <mxCell id="gdTOuHleY5k2Hak_XxqP-80" value="&lt;h1&gt;&lt;span style=&quot;background-color: transparent; color: light-dark(rgb(255, 255, 255), rgb(18, 18, 18)); font-size: 16px;&quot;&gt;3D Spatial Indexing&lt;/span&gt;&lt;span style=&quot;background-color: transparent; color: light-dark(rgb(255, 255, 255), rgb(18, 18, 18)); font-size: 14px; font-weight: 400;&quot;&gt;&amp;nbsp;&lt;/span&gt;&lt;/h1&gt;&lt;div style=&quot;line-height: 150%;&quot;&gt;&lt;font style=&quot;font-size: 13px; line-height: 150%;&quot;&gt;Raycasting and box overlap.&lt;/font&gt;&lt;/div&gt;&lt;div style=&quot;line-height: 150%;&quot;&gt;&lt;font style=&quot;font-size: 13px; line-height: 150%;&quot;&gt;CGAL::AABB_Tree&lt;/font&gt;&lt;/div&gt;&lt;div&gt;&lt;span style=&quot;font-size: 14px; font-weight: 400;&quot;&gt;&lt;br&gt;&lt;/span&gt;&lt;/div&gt;" style="text;html=1;spacing=5;spacingTop=-20;whiteSpace=wrap;overflow=hidden;strokeColor=none;strokeWidth=4;fillColor=none;gradientColor=#007FFF;fontSize=9;fontColor=#FFFFFF;align=center;" vertex="1" parent="1">
          <mxGeometry x="1170" y="941" width="270" height="93.5" as="geometry" />
        </mxCell>
        <mxCell id="gdTOuHleY5k2Hak_XxqP-81" value="" style="rounded=1;whiteSpace=wrap;html=1;strokeColor=none;strokeWidth=1;fillColor=#10739E;fontSize=13;fontColor=#FFFFFF;align=center;gradientColor=none;gradientDirection=east;verticalAlign=top;shadow=1;" vertex="1" parent="1">
          <mxGeometry x="1270" y="1073.75" width="260" height="85" as="geometry" />
        </mxCell>
        <mxCell id="gdTOuHleY5k2Hak_XxqP-82" value="&lt;h1&gt;Qt + OpenGL rendering&lt;/h1&gt;" style="text;html=1;spacing=5;spacingTop=-20;whiteSpace=wrap;overflow=hidden;strokeColor=none;strokeWidth=4;fillColor=none;gradientColor=#007FFF;fontSize=9;fontColor=#FFFFFF;align=center;" vertex="1" parent="1">
          <mxGeometry x="1320" y="1073.75" width="210" height="25" as="geometry" />
        </mxCell>
        <mxCell id="gdTOuHleY5k2Hak_XxqP-83" value="&lt;font face=&quot;Verdana&quot; color=&quot;#ff8000&quot;&gt;&lt;span style=&quot;font-size: 24px;&quot;&gt;Dec&lt;/span&gt;&lt;/font&gt;&lt;div&gt;&lt;font face=&quot;Verdana&quot; color=&quot;#ff8000&quot;&gt;&lt;span style=&quot;font-size: 24px;&quot;&gt;24&lt;/span&gt;&lt;/font&gt;&lt;/div&gt;" style="text;html=1;strokeColor=none;fillColor=none;align=center;verticalAlign=middle;whiteSpace=wrap;fontSize=30;fontColor=#FFFFFF;" vertex="1" parent="1">
          <mxGeometry x="1280" y="1086.25" width="40" height="60" as="geometry" />
        </mxCell>
        <mxCell id="gdTOuHleY5k2Hak_XxqP-84" value="&lt;h1 style=&quot;forced-color-adjust: none; line-height: 50%;&quot;&gt;&lt;font style=&quot;font-size: 10px;&quot; color=&quot;#ffffff&quot;&gt;&lt;span style=&quot;font-weight: 400;&quot;&gt;QGraphicsScene can&#39;t efficiently handle thousands of dynamic vehicles&lt;/span&gt;&lt;/font&gt;&lt;/h1&gt;&lt;div&gt;&lt;font style=&quot;font-size: 10px;&quot; color=&quot;#ffffff&quot;&gt;Luckly, QOpenGLWidget came to rescue!&lt;/font&gt;&lt;/div&gt;" style="text;whiteSpace=wrap;html=1;" vertex="1" parent="1">
          <mxGeometry x="1330" y="1071.25" width="200" height="75" as="geometry" />
        </mxCell>
        <mxCell id="gdTOuHleY5k2Hak_XxqP-85" value="" style="line;strokeWidth=10;direction=west;html=1;fillColor=none;fontSize=13;fontColor=#000000;align=center;strokeColor=#AE4132;rotation=0;" vertex="1" parent="1">
          <mxGeometry x="880" y="1190" width="512.58" height="10" as="geometry" />
        </mxCell>
        <mxCell id="gdTOuHleY5k2Hak_XxqP-86" value="" style="line;strokeWidth=10;direction=south;html=1;fillColor=none;fontSize=13;fontColor=#000000;align=center;strokeColor=#AE4132;" vertex="1" parent="1">
          <mxGeometry x="881.5" y="1200" width="10" height="540" as="geometry" />
        </mxCell>
        <mxCell id="gdTOuHleY5k2Hak_XxqP-88" value="" style="rounded=1;whiteSpace=wrap;html=1;strokeColor=none;strokeWidth=1;fillColor=#F2931E;fontSize=13;fontColor=#FFFFFF;align=center;gradientColor=none;gradientDirection=east;verticalAlign=top;shadow=1;" vertex="1" parent="1">
          <mxGeometry x="630" y="1220" width="310" height="85" as="geometry" />
        </mxCell>
        <mxCell id="gdTOuHleY5k2Hak_XxqP-89" value="&lt;div&gt;&lt;font face=&quot;Verdana&quot; color=&quot;#4121ff&quot;&gt;&lt;span style=&quot;font-size: 24px;&quot;&gt;Dec&lt;/span&gt;&lt;/font&gt;&lt;/div&gt;&lt;div&gt;&lt;font face=&quot;Verdana&quot; color=&quot;#4121ff&quot;&gt;&lt;span style=&quot;font-size: 24px;&quot;&gt;24&lt;/span&gt;&lt;/font&gt;&lt;/div&gt;" style="text;html=1;strokeColor=none;fillColor=none;align=center;verticalAlign=middle;whiteSpace=wrap;fontSize=30;fontColor=#FFFFFF;" vertex="1" parent="1">
          <mxGeometry x="890" y="1232.5" width="40" height="60" as="geometry" />
        </mxCell>
        <mxCell id="gdTOuHleY5k2Hak_XxqP-90" value="&lt;h1&gt;&lt;span style=&quot;background-color: transparent; color: light-dark(rgb(255, 255, 255), rgb(18, 18, 18)); font-size: 16px;&quot;&gt;3D engine from basic OpenGL&lt;/span&gt;&lt;/h1&gt;&lt;div&gt;&lt;span style=&quot;font-size: 16px;&quot;&gt;Custom GPU memory manager&lt;/span&gt;&lt;/div&gt;&lt;div&gt;&lt;span style=&quot;font-size: 16px;&quot;&gt;Instanced rendering for cars&lt;/span&gt;&lt;/div&gt;&lt;h1&gt;&lt;br&gt;&lt;/h1&gt;&lt;div&gt;&lt;span style=&quot;font-size: 14px; font-weight: 400;&quot;&gt;&lt;br&gt;&lt;/span&gt;&lt;/div&gt;" style="text;html=1;spacing=5;spacingTop=-20;whiteSpace=wrap;overflow=hidden;strokeColor=none;strokeWidth=4;fillColor=none;gradientColor=#007FFF;fontSize=9;fontColor=#FFFFFF;align=center;" vertex="1" parent="1">
          <mxGeometry x="630" y="1220" width="270" height="93.5" as="geometry" />
        </mxCell>
        <mxCell id="gdTOuHleY5k2Hak_XxqP-97" value="" style="rounded=1;whiteSpace=wrap;html=1;strokeColor=none;strokeWidth=1;fillColor=#10739E;fontSize=13;fontColor=#FFFFFF;align=center;gradientColor=none;gradientDirection=east;verticalAlign=top;shadow=1;" vertex="1" parent="1">
          <mxGeometry x="840.75" y="1342.5" width="260" height="85" as="geometry" />
        </mxCell>
        <mxCell id="gdTOuHleY5k2Hak_XxqP-98" value="&lt;h1&gt;2D to 3D migration&lt;/h1&gt;" style="text;html=1;spacing=5;spacingTop=-20;whiteSpace=wrap;overflow=hidden;strokeColor=none;strokeWidth=4;fillColor=none;gradientColor=#007FFF;fontSize=9;fontColor=#FFFFFF;align=center;" vertex="1" parent="1">
          <mxGeometry x="890.75" y="1342.5" width="210" height="25" as="geometry" />
        </mxCell>
        <mxCell id="gdTOuHleY5k2Hak_XxqP-99" value="&lt;font face=&quot;Verdana&quot; color=&quot;#ff8000&quot;&gt;&lt;span style=&quot;font-size: 24px;&quot;&gt;Dec&lt;/span&gt;&lt;/font&gt;&lt;div&gt;&lt;font face=&quot;Verdana&quot; color=&quot;#ff8000&quot;&gt;&lt;span style=&quot;font-size: 24px;&quot;&gt;24&lt;/span&gt;&lt;/font&gt;&lt;/div&gt;" style="text;html=1;strokeColor=none;fillColor=none;align=center;verticalAlign=middle;whiteSpace=wrap;fontSize=30;fontColor=#FFFFFF;" vertex="1" parent="1">
          <mxGeometry x="850.75" y="1355" width="40" height="60" as="geometry" />
        </mxCell>
        <mxCell id="gdTOuHleY5k2Hak_XxqP-100" value="&lt;h1 style=&quot;forced-color-adjust: none; line-height: 50%;&quot;&gt;&lt;font style=&quot;font-size: 10px;&quot; color=&quot;#ffffff&quot;&gt;&lt;span style=&quot;font-weight: 400;&quot;&gt;3D camera controls&lt;/span&gt;&lt;/font&gt;&lt;/h1&gt;&lt;div&gt;&lt;font color=&quot;#ffffff&quot;&gt;&lt;span style=&quot;font-size: 10px;&quot;&gt;All QGraphicsItems replaced by OpenGL-based twin!&lt;/span&gt;&lt;/font&gt;&lt;/div&gt;" style="text;whiteSpace=wrap;html=1;" vertex="1" parent="1">
          <mxGeometry x="901.5" y="1340" width="199.25" height="25" as="geometry" />
        </mxCell>
        <mxCell id="gdTOuHleY5k2Hak_XxqP-103" value="" style="rounded=1;whiteSpace=wrap;html=1;strokeColor=none;strokeWidth=1;fillColor=#F2931E;fontSize=13;fontColor=#FFFFFF;align=center;gradientColor=none;gradientDirection=east;verticalAlign=top;shadow=1;" vertex="1" parent="1">
          <mxGeometry x="640" y="1470" width="310" height="85" as="geometry" />
        </mxCell>
        <mxCell id="gdTOuHleY5k2Hak_XxqP-104" value="&lt;div&gt;&lt;font face=&quot;Verdana&quot; color=&quot;#4121ff&quot;&gt;&lt;span style=&quot;font-size: 24px;&quot;&gt;Jan&lt;/span&gt;&lt;/font&gt;&lt;/div&gt;&lt;div&gt;&lt;font face=&quot;Verdana&quot; color=&quot;#4121ff&quot;&gt;&lt;span style=&quot;font-size: 24px;&quot;&gt;25&lt;/span&gt;&lt;/font&gt;&lt;/div&gt;" style="text;html=1;strokeColor=none;fillColor=none;align=center;verticalAlign=middle;whiteSpace=wrap;fontSize=30;fontColor=#FFFFFF;" vertex="1" parent="1">
          <mxGeometry x="900" y="1482.5" width="40" height="60" as="geometry" />
        </mxCell>
        <mxCell id="gdTOuHleY5k2Hak_XxqP-105" value="&lt;h1&gt;&lt;span style=&quot;background-color: transparent; color: light-dark(rgb(255, 255, 255), rgb(18, 18, 18)); font-size: 16px;&quot;&gt;Realitic Vehicle models&lt;/span&gt;&lt;/h1&gt;&lt;div&gt;&lt;span style=&quot;font-size: 16px;&quot;&gt;Found a sedan, an SUV and a 4x4 jeep model to replace ugly boxes&lt;/span&gt;&lt;/div&gt;&lt;h1&gt;&lt;br&gt;&lt;/h1&gt;&lt;div&gt;&lt;span style=&quot;font-size: 14px; font-weight: 400;&quot;&gt;&lt;br&gt;&lt;/span&gt;&lt;/div&gt;" style="text;html=1;spacing=5;spacingTop=-20;whiteSpace=wrap;overflow=hidden;strokeColor=none;strokeWidth=4;fillColor=none;gradientColor=#007FFF;fontSize=9;fontColor=#FFFFFF;align=center;" vertex="1" parent="1">
          <mxGeometry x="630" y="1470" width="280" height="93.5" as="geometry" />
        </mxCell>
        <mxCell id="gdTOuHleY5k2Hak_XxqP-106" value="" style="rounded=1;whiteSpace=wrap;html=1;strokeColor=none;strokeWidth=1;fillColor=#10739E;fontSize=13;fontColor=#FFFFFF;align=center;gradientColor=none;gradientDirection=east;verticalAlign=top;shadow=1;" vertex="1" parent="1">
          <mxGeometry x="835.37" y="1590" width="310" height="110" as="geometry" />
        </mxCell>
        <mxCell id="gdTOuHleY5k2Hak_XxqP-107" value="&lt;h1&gt;3D efficiency improvements&lt;/h1&gt;&lt;div style=&quot;line-height: 130%;&quot;&gt;&lt;span style=&quot;font-size: 11px; line-height: 130%;&quot;&gt;Discover and eliminate data transmission bottleneck from CPU to GPU&lt;/span&gt;&lt;/div&gt;&lt;div style=&quot;line-height: 130%;&quot;&gt;&lt;span style=&quot;font-size: 11px; line-height: 130%;&quot;&gt;Goal: Intel HD graphics can handle this, just like any other C++ Qt applications!&lt;/span&gt;&lt;/div&gt;" style="text;html=1;spacing=5;spacingTop=-20;whiteSpace=wrap;overflow=hidden;strokeColor=none;strokeWidth=4;fillColor=none;gradientColor=#007FFF;fontSize=9;fontColor=#FFFFFF;align=center;" vertex="1" parent="1">
          <mxGeometry x="880.37" y="1600" width="255" height="100" as="geometry" />
        </mxCell>
        <mxCell id="gdTOuHleY5k2Hak_XxqP-108" value="&lt;div&gt;&lt;font face=&quot;Verdana&quot; color=&quot;#ff8000&quot;&gt;&lt;span style=&quot;font-size: 24px;&quot;&gt;Jan&lt;/span&gt;&lt;/font&gt;&lt;/div&gt;&lt;div&gt;&lt;font face=&quot;Verdana&quot; color=&quot;#ff8000&quot;&gt;&lt;span style=&quot;font-size: 24px;&quot;&gt;25&lt;/span&gt;&lt;/font&gt;&lt;/div&gt;" style="text;html=1;strokeColor=none;fillColor=none;align=center;verticalAlign=middle;whiteSpace=wrap;fontSize=30;fontColor=#FFFFFF;" vertex="1" parent="1">
          <mxGeometry x="846.12" y="1615" width="40" height="60" as="geometry" />
        </mxCell>
        <mxCell id="gdTOuHleY5k2Hak_XxqP-110" value="&lt;font style=&quot;font-size: 18px; color: rgb(153, 255, 255);&quot;&gt;&lt;b style=&quot;&quot;&gt;Jan 31 2025&lt;/b&gt;&lt;/font&gt;&lt;div&gt;&lt;font color=&quot;#ffffff&quot;&gt;&lt;span style=&quot;font-size: 15px;&quot;&gt;First 3D Release&lt;/span&gt;&lt;/font&gt;&lt;/div&gt;" style="shape=hexagon;perimeter=hexagonPerimeter2;whiteSpace=wrap;html=1;fixedSize=1;fillColor=#DD60FF;strokeColor=none;" vertex="1" parent="1">
          <mxGeometry x="797.5" y="1740" width="185" height="84" as="geometry" />
        </mxCell>
      </root>
    </mxGraphModel>
  </diagram>
</mxfile>
